<?xml version="1.0" encoding="UTF-8" standalone="no"?>
<!-- Created with Inkscape (http://www.inkscape.org/) -->

<svg
   width="400"
   height="400"
   viewBox="0 0 105.83333 105.83333"
   version="1.1"
   id="svg1"
   xml:space="preserve"
   inkscape:version="1.4.2 (2aeb623e1d, 2025-05-12)"
   sodipodi:docname="queen-annes-lace.svg"
   xmlns:inkscape="http://www.inkscape.org/namespaces/inkscape"
   xmlns:sodipodi="http://sodipodi.sourceforge.net/DTD/sodipodi-0.dtd"
   xmlns:xlink="http://www.w3.org/1999/xlink"
   xmlns="http://www.w3.org/2000/svg"
   xmlns:svg="http://www.w3.org/2000/svg"><sodipodi:namedview
     id="namedview1"
     pagecolor="#ffffff"
     bordercolor="#000000"
     borderopacity="0.25"
     inkscape:showpageshadow="2"
     inkscape:pageopacity="0.0"
     inkscape:pagecheckerboard="0"
     inkscape:deskcolor="#d1d1d1"
     inkscape:document-units="mm"
     inkscape:zoom="1.3868085"
     inkscape:cx="204.06566"
     inkscape:cy="257.06504"
     inkscape:window-width="1854"
     inkscape:window-height="1011"
     inkscape:window-x="0"
     inkscape:window-y="0"
     inkscape:window-maximized="1"
     inkscape:current-layer="layer10" /><defs
     id="defs1" /><g
     inkscape:label="Layer 1"
     inkscape:groupmode="layer"
     id="layer1"
     style="display:none"><image
       width="79.375"
       height="43.295452"
       preserveAspectRatio="none"
       xlink:href="../8d297ae7/queen-annes-lace.png"
       id="image1"
       x="0.19251694"
       y="0.0055189799"
       sodipodi:insensitive="true"
       style="display:none" /><image
       width="230.5258"
       height="125.74135"
       preserveAspectRatio="none"
       xlink:href="../2d743781/Gemini_Generated_Image_6vjmkz6vjmkz6vjm.png"
       id="image1-8"
       x="-30.51705"
       y="-14.127584"
       style="display:inline" /></g><g
     inkscape:groupmode="layer"
     id="layer10"
     inkscape:label="Plant"
     transform="matrix(0.83959605,0,0,0.79295107,-17.436809,17.398633)"><g
       id="layer8"
       inkscape:label="Sepal"
       transform="translate(45.588581,-0.90533924)"><path
         style="fill:none;fill-opacity:1;stroke:#5005ff;stroke-width:1.05833;stroke-dasharray:none;stroke-opacity:1"
         d="M 39.723286,40.546092 16.754707,17.311468"
         id="path38" /><path
         style="display:inline;fill:none;fill-opacity:1;stroke:#5005ff;stroke-width:1.05833;stroke-dasharray:none;stroke-opacity:1"
         d="M 105.69657,15.734575 85.048592,39.248696"
         id="path40"
         transform="translate(-45.588582,0.90533925)" /><path
         style="display:inline;fill:none;fill-opacity:1;stroke:#5005ff;stroke-width:1.05833;stroke-dasharray:none;stroke-opacity:1"
         d="m 84.522155,40.126089 v 0 l 0.935887,-27.433142"
         id="path39"
         transform="translate(-45.588582,0.90533925)" /></g><g
       id="layer2"
       inkscape:label="Head"
       transform="translate(45.568743,-7.5444937)"><g
         id="layer4"
         inkscape:label="Stems"><path
           style="fill:none;fill-opacity:1;stroke:#5005ff;stroke-width:1.05833;stroke-dasharray:none;stroke-opacity:1"
           d="m 26.590509,11.907914 13.350763,8.303524 13.546144,-8.433775"
           id="path36"
           sodipodi:nodetypes="ccc" /></g><g
         id="layer3"
         inkscape:label="Flowers"><g
           id="layer5"
           inkscape:label="Big"><path
             style="fill:#008080;fill-opacity:1;stroke-width:0.264583"
             d="m 23.646926,12.062926 9.668301,1.825901 H 46.665263 L 56.124032,12.122791 48.22177,7.4532717 39.930379,6.076362 32.536974,7.4233388 Z"
             id="path22" /><path
             style="fill:#ff00ff;fill-opacity:1;stroke-width:0.264583"
             d="M 30.926624,8.6594547 38.124092,6.9243505 35.200121,10.940795 Z"
             id="path20" /><path
             style="fill:#ff00ff;fill-opacity:1;stroke-width:0.264583"
             d="M 41.031998,9.1574936 43.972035,6.6994296 38.622131,6.667298 Z"
             id="path21" /></g><g
           id="layer6"
           inkscape:label="Small"><path
             style="fill:#800000;fill-opacity:1;stroke-width:0.264583"
             d="m 26.974442,9.9929142 2.956103,4.2895628 -5.880075,0.03213 z"
             id="path1" /><path
             style="fill:#800000;fill-opacity:1;stroke-width:0.264583"
             d="M 28.677415,7.6955078 29.062992,9.9607826 26.41214,9.6555329 Z"
             id="path2" /><path
             style="fill:#800000;fill-opacity:1;stroke-width:0.264583"
             d="m 28.115111,12.081465 2.265276,-3.3577473 2.441998,3.3095503 z"
             id="path3" /><path
             style="fill:#800000;fill-opacity:1;stroke-width:0.264583"
             d="m 30.02694,14.860845 v 0 l 2.85971,-4.161037 2.907905,4.161037 z"
             id="path4" /><path
             style="fill:#800000;fill-opacity:1;stroke-width:0.264583"
             d="m 32.999108,11.487032 2.056421,-3.004301 2.184945,2.940038 z"
             id="path5" /><path
             style="fill:#800000;fill-opacity:1;stroke-width:0.264583"
             d="m 34.927002,13.190004 2.811511,-4.193168 3.148893,4.177102 z"
             id="path6" /><path
             style="fill:#800000;fill-opacity:1;stroke-width:0.264583"
             d="m 38.108027,14.668056 v 0 l 2.89184,-4.289563 2.907906,4.209234 z"
             id="path7" /><path
             style="fill:#800000;fill-opacity:1;stroke-width:0.264583"
             d="m 41.690694,11.14965 2.120683,-2.8757742 2.16888,2.8918402 c 0,0 -8.579125,-0.03213 -4.289563,-0.01607 z"
             id="path8" /><path
             style="fill:#800000;fill-opacity:1;stroke-width:0.264583"
             d="m 43.522193,15.246424 v 0 l 2.875775,-4.209234 2.956102,4.257431 c 0,0 -11.663754,-0.09639 -5.831877,-0.0482 z"
             id="path9" /><path
             style="fill:#800000;fill-opacity:1;stroke-width:0.264583"
             d="m 47.522571,12.290321 2.265275,-3.229222 2.297407,3.132827 c 0,0 -9.12536,0.192789 -4.562682,0.0964 z"
             id="path10" /><path
             style="fill:#800000;fill-opacity:1;stroke-width:0.264583"
             d="M 49.948504,13.92903 52.85641,9.5912698 55.764316,13.81657 Z"
             id="path11" /><path
             style="fill:#800000;fill-opacity:1;stroke-width:0.264583"
             d="m 49.51473,9.3020858 v 0 l 0.176723,-2.4098668 2.747249,2.7793796 z"
             id="path12" /><path
             style="fill:#800000;fill-opacity:1;stroke-width:0.264583"
             d="m 45.626811,9.6234013 1.783302,-2.3456037 1.89576,2.2813407 z"
             id="path13" /><path
             style="fill:#800000;fill-opacity:1;stroke-width:0.264583"
             d="m 30.25186,7.6955078 v 0 l 3.004301,1.1888676 1.686907,-2.8275769 z"
             id="path14" /><path
             style="fill:#800000;fill-opacity:1;stroke-width:0.264583"
             d="m 35.521437,5.8158117 2.184945,1.9760909 2.168879,-2.0242882 z"
             id="path15" /><path
             style="fill:#800000;fill-opacity:1;stroke-width:0.264583"
             d="M 41.899551,5.6230226 42.959893,8.25781 46.414033,6.9082848 Z"
             id="path16" /></g><g
           id="layer7"
           inkscape:label="XSmall"><path
             style="fill:#0000ff;fill-opacity:1;stroke-width:0.264583"
             d="m 38.863119,9.4788092 1.317392,1.7672358 -2.715115,0.0482 z"
             id="path17" /><path
             style="fill:#0000ff;fill-opacity:1;stroke-width:0.264583"
             d="m 38.750658,8.3542049 v 0 l 1.429853,1.7190381 1.445921,-1.7511699 z"
             id="path18" /><path
             style="fill:#0000ff;fill-opacity:1;stroke-width:0.264583"
             d="m 40.983802,10.201769 1.365591,-1.8475641 1.622642,1.7351041 z"
             id="path19" /></g></g></g><g
       id="layer9"
       inkscape:label="Stem"
       style="display:inline;opacity:1;fill:#ff0000"><path
         style="fill:#800000;fill-opacity:1;stroke-width:0.264583"
         d="m 77.022144,95.437964 h 16.331009 l 1.15823,15.867716 h -20.03734 z"
         id="path26" /><path
         style="fill:#800000;fill-opacity:1;stroke-width:0.264583"
         d="M 76.674675,93.816444 H 94.511383 L 91.963281,78.643662 H 77.832902 Z"
         id="path27" /><path
         style="fill:#800000;fill-opacity:1;stroke-width:0.264583"
         d="M 77.369611,77.253789 79.570243,63.239234 90.68923,62.775943 92.542395,77.137965 Z"
         id="path28"
         sodipodi:nodetypes="ccccc" /><path
         style="fill:#800000;fill-opacity:1;stroke-width:0.264583"
         d="M 78.759486,61.733538 91.384166,61.965183 88.951889,50.96202 80.496827,50.498729 Z"
         id="path29" /><path
         style="fill:#800000;fill-opacity:1;stroke-width:0.264583"
         d="M 79.917712,49.919613 89.299356,49.687969 88.141131,37.52658 81.655055,37.874047 Z"
         id="path30"
         sodipodi:nodetypes="ccccc" /><path
         style="fill:#ff0000;fill-opacity:1;stroke-width:0.264583"
         d="M 94.554577,111.52605 77.948726,99.839228 70.304424,89.183534 l 1.389872,12.277216 2.779747,9.96076 z"
         id="path31"
         sodipodi:nodetypes="cccccc" /><path
         style="fill:#ff0000;fill-opacity:1;stroke-width:0.264583"
         d="m 76.620203,93.866524 14.648142,-10.937419 7.644302,-11.234809 -0.926581,12.740505 -3.372628,9.34533 z"
         id="path32"
         sodipodi:nodetypes="cccccc" /><path
         style="fill:#ff0000;fill-opacity:1;stroke-width:0.264583"
         d="m 92.817236,77.217476 -13.478638,-9.345333 -6.370252,-8.686707 1.042406,10.308228 2.548099,7.882831 z"
         id="path33"
         sodipodi:nodetypes="cccccc" /><path
         style="fill:#ff0000;fill-opacity:1;stroke-width:0.264583"
         d="m 78.734299,61.718462 10.796705,-9.019101 4.632909,-7.52848 -0.231645,9.613291 -2.169133,7.187176 z"
         id="path34"
         sodipodi:nodetypes="cccccc" /><path
         style="fill:#ff0000;fill-opacity:1;stroke-width:0.264583"
         d="m 89.458374,49.687969 -8.266611,-5.212025 -3.243037,-4.980379 0.347469,6.138606 1.853163,4.523974 z"
         id="path35"
         sodipodi:nodetypes="cccccc" /></g><use
       x="0"
       y="0"
       xlink:href="#layer2"
       id="use35"
       transform="translate(-23.23704,3.9231366)"
       style="display:inline" /><use
       x="0"
       y="0"
       xlink:href="#layer2"
       id="use36"
       transform="translate(19.917463,3.3195773)"
       style="display:inline" /></g></svg>
